Bloodrayne.The.Third.Reich.2010.H.264.AC3.NL.Subs.MQ.DMT
.

Verenigde Staten / Canada / Duitsland
Actie / Fantasy
95 minuten

geregisseerd door Uwe Boll
met Natassia Malthe, Michael ParÚ en Brendan Fletcher

Rayne vecht tegen de Nazi's in Europa tijdens de Tweede Wereldoorlog. Ze wordt geconfronteerd met Ekart Brand, een Nazileider die als doel heeft om Hitler in te spuiten met Rayne's bloed in een poging hem te veranderen in een dhampir (half mens, half vampier) en hem hierdoor onsterfelijk te maken.
. 
http://www.moviemeter.nl/film/65270
.
PLOT
.
Rayne fights against the Nazis in Europe during World War II, encountering Ekart Brand, a Nazi leader...
. 
http://www.imdb.com/title/tt1153546/
.
INFO
.
Release Date: 11.06.2011
Store Date: 24.06.2011
Genre: Action
Runtime: 75 Min.
Source: PAL DVDR
.
Pictures:
.
    http://bayimg.com/nAiaNAaDk
    http://bayimg.com/naiAOaADk
    http://bayimg.com/naiApAAdk
    http://bayimg.com/OaIAaaaDk
    http://bayimg.com/OaIABAaDK
    
    http://bayimg.com/OaiAcAAdK
.
Video
.
Format profile                   : High@L2.2
Format settings, CABAC           : Yes
Format settings, ReFrames        : 10 frames
Codec ID                         : H264
Duration                         : 1h 15mn
Bit rate                         : 895 Kbps
Width                            : 704 pixels
Height                           : 288 pixels
Display aspect ratio             : 2.40:1
Frame rate                       : 25.000 fps
Color space                      : YUV
Chroma subsampling               : 4:2:0
Bit depth                        : 8 bits
Scan type                        : Progressive
Bits/(Pixel*Frame)               : 0.177
Stream size                      : 485 MiB (70%)
Writing library                  : x264 core 93
.
Audio
.
Format                           : AC-3
Format/Info                      : Audio Coding 3
Mode extension                   : CM (complete main)
Codec ID                         : 2000
Duration                         : 1h 15mn
Bit rate mode                    : Constant
Bit rate                         : 384 Kbps
Channel(s)                       : 6 channels
Channel positions                : Front: L C R, Side: L R, LFE
Sampling rate                    : 48.0 KHz
Bit depth                        : 16 bits
Stream size                      : 208 MiB (30%)
Alignment                        : Aligned on interleaves
Interleave, duration             : 64 ms (1.60 video frames)
Interleave, preload duration     : 192 ms
.
Subs: NL (Selectable) 
.
Encoder: NLMQ (Thanks Nice one)
.
Enjoy (MQ)
.

